<?xml version="1.0" encoding="UTF-8"?>
<svg version="1.1" xmlns="http://www.w3.org/2000/svg" width="512" height="512">
<path d="M0 0 C5.17245106 -0.2337831 10.17593481 0.52771212 15.26171875 1.40625 C15.93912109 1.51549805 16.61652344 1.62474609 17.31445312 1.73730469 C23.0042797 2.80100632 27.00315898 5.08519023 31.07421875 9.15625 C31.96442279 16.57898075 30.64252998 23.91681336 29.07421875 31.15625 C29.780625 31.25421875 30.48703125 31.3521875 31.21484375 31.453125 C38.39505485 32.49948742 45.51629672 33.76318014 52.63671875 35.15625 C53.50522461 35.3222168 54.37373047 35.48818359 55.26855469 35.65917969 C56.50460449 35.90522949 56.50460449 35.90522949 57.765625 36.15625 C58.49982666 36.300625 59.23402832 36.445 59.99047852 36.59375 C62.35969149 37.23331259 64.05738518 37.72979331 66.07421875 39.15625 C67.9926757 42.80890343 68.19293875 44.63937407 67.26464844 48.6809082 C66.77800341 50.00943728 66.27030316 51.33037092 65.74609375 52.64453125 C65.47182556 53.37384354 65.19755737 54.10315582 64.91497803 54.85456848 C63.98871246 57.29695481 63.0333953 59.72661339 62.07421875 62.15625 C61.3857515 63.92744873 60.69760883 65.69877367 60.00976562 67.47021484 C57.80930117 73.1059822 55.56918247 78.72559176 53.32421875 84.34375 C52.17121909 87.23446071 51.01919964 90.12555261 49.86907959 93.01741028 C49.16079937 94.79782212 48.45081788 96.57755847 47.73883057 98.35649109 C46.05360086 102.58784168 44.45745628 106.81363992 43.07421875 111.15625 C43.96109375 111.6925 44.84796875 112.22875 45.76171875 112.78125 C51.23197697 116.45395292 54.38257551 120.81070825 56.07421875 127.15625 C56.28566879 129.83095569 56.40850887 132.36180208 56.38671875 135.03125 C56.37934692 136.09243042 56.37934692 136.09243042 56.37182617 137.17504883 C56.21486745 144.15769955 55.24049668 148.66503039 50.57421875 154.03125 C48.07421875 156.15625 48.07421875 156.15625 45.07421875 158.15625 C45.97140625 158.3521875 46.86859375 158.548125 47.79296875 158.75 C63.21452334 162.44607507 75.7685699 169.11116924 88.07421875 179.15625 C89.09 179.96964844 90.10578125 180.78304687 91.15234375 181.62109375 C94.93700182 184.67755191 98.65926114 187.68909469 102.07421875 191.15625 C102.37489258 190.35743408 102.37489258 190.35743408 102.68164062 189.54248047 C112.76139617 162.98883873 127.98492623 137.15652504 153.07421875 122.15625 C154.67330078 121.17785156 154.67330078 121.17785156 156.3046875 120.1796875 C185.04038477 102.96089885 219.64023933 96.63005989 252.46875 104.83203125 C286.53728214 114.29268447 314.54643368 135.38577934 332.0078125 166.24609375 C346.41123446 192.855122 351.31035815 227.40543393 343.3984375 256.84375 C342.96773718 258.28449389 342.5259552 259.72196275 342.07421875 261.15625 C341.70417725 262.34347656 341.70417725 262.34347656 341.32666016 263.5546875 C331.32774937 294.68696221 310.11331425 321.18277244 280.91894531 336.234375 C272.73930214 340.32203152 264.6145091 343.77257054 255.80078125 346.25878906 C253.91093506 346.79345795 253.91093506 346.79345795 251.98291016 347.33892822 C251.02304199 347.60864441 250.06317383 347.8783606 249.07421875 348.15625 C250.0837561 348.16211624 251.09329346 348.16798248 252.13342285 348.17402649 C261.66714699 348.23134517 271.20064503 348.30415444 280.73413849 348.39196491 C285.63491661 348.43661128 290.53561269 348.47588001 295.43652344 348.50268555 C300.16994547 348.52877575 304.90305086 348.56921849 309.63627625 348.61943626 C311.43824818 348.63606637 313.24027483 348.64760459 315.04231262 348.65386391 C317.57476666 348.66354715 320.10641763 348.69165585 322.63867188 348.72387695 C323.37667023 348.72244186 324.11466858 348.72100677 324.87503052 348.7195282 C330.8097436 348.82568336 336.48686114 349.95184095 341.1328125 353.91015625 C341.58785156 354.50699219 342.04289062 355.10382813 342.51171875 355.71875 C342.98480469 356.31816406 343.45789063 356.91757812 343.9453125 357.53515625 C347.35283784 362.42831548 346.57715042 368.42143195 346.07421875 374.15625 C343.68988365 379.18984633 340.07428302 382.65621787 335.07421875 385.15625 C335.61691406 385.51976562 336.15960938 385.88328125 336.71875 386.2578125 C341.18124913 389.3936227 344.47106114 391.74559307 346.07421875 397.15625 C346.89066377 404.56626368 346.77891407 410.21347697 342.07421875 416.15625 C340.13527714 417.74050717 338.26510475 418.91142841 336.07421875 420.15625 C336.79609375 420.65125 337.51796875 421.14625 338.26171875 421.65625 C342.64902425 425.55607711 345.61387103 429.1679583 346.52734375 435.09765625 C346.75688959 441.64791062 346.17885851 445.99913851 342.07421875 451.15625 C339.82099207 453.04760944 337.56940495 454.57276645 335.07421875 456.15625 C335.98171875 456.713125 336.88921875 457.27 337.82421875 457.84375 C341.49825128 460.45796545 344.05345714 463.11472678 346.07421875 467.15625 C346.5675063 473.01100711 346.93166163 478.34609281 344.38671875 483.71875 C339.22189747 489.16275081 334.59953095 492.15837914 326.95369148 492.41072559 C325.34597341 492.42296021 323.73814938 492.42430889 322.13040161 492.41694641 C321.24070517 492.42077196 320.35100874 492.42459751 319.4343518 492.42853898 C316.45894102 492.43884163 313.4837242 492.434882 310.50830078 492.4309082 C308.37263816 492.4352562 306.2369771 492.44043964 304.10131836 492.44639587 C298.30378317 492.45978797 292.50631315 492.46036428 286.70876551 492.45783257 C281.86779374 492.45676296 277.02683517 492.461646 272.18586624 492.466438 C260.76436303 492.47753401 249.34289271 492.47797011 237.92138672 492.47192383 C226.14141799 492.46588363 214.36156869 492.47819606 202.58162034 492.4994939 C192.46510212 492.51711129 182.34862191 492.52311101 172.23208892 492.51985615 C166.19115253 492.51804331 160.15030132 492.52067963 154.10937881 492.53457069 C148.42780108 492.5471465 142.74640947 492.54520711 137.06483459 492.53215981 C134.98154004 492.52979392 132.8982324 492.53252913 130.81495285 492.54078293 C127.9670874 492.55125094 125.11984639 492.54314908 122.27200317 492.5304718 C121.4511719 492.53784609 120.63034062 492.54522037 119.78463566 492.55281812 C114.01399367 492.49892241 108.02019362 491.81555335 103.54422963 487.77514344 C98.82097073 482.30957487 97.55309241 478.08199192 97.6953125 470.98046875 C98.38427752 465.84519339 100.76853859 462.06235093 104.7421875 458.77734375 C106.38671875 457.65625 106.38671875 457.65625 109.07421875 456.15625 C107.24825719 454.33028844 104.70487717 455.02662366 102.27383256 455.01498187 C101.43349528 455.01605012 100.593158 455.01711837 99.72735596 455.01821899 C98.3983859 455.01398707 98.3983859 455.01398707 97.04256797 455.00966966 C94.04952884 455.00128278 91.05652651 454.99998189 88.06347656 454.99853516 C85.92681269 454.99386964 83.79014982 454.98872652 81.65348816 454.98313904 C77.03830305 454.97183293 72.42312449 454.96341064 67.80792999 454.95701981 C60.50358157 454.94635723 53.19927978 454.92611433 45.8949585 454.90390015 C25.11895904 454.84192613 4.34296138 454.78803844 -16.43310547 454.75488281 C-27.89714296 454.73650717 -39.36110325 454.70752846 -50.82508397 454.6668781 C-56.8913918 454.64584626 -62.95760247 454.63035635 -69.02394867 454.62807083 C-74.73997311 454.62591506 -80.45579576 454.60995101 -86.17175865 454.58368111 C-88.26261213 454.57652021 -90.35349015 454.57437145 -92.4443531 454.57778358 C-113.92310843 454.60721858 -131.62493044 451.43662118 -147.375 435.76953125 C-148.21675781 434.90714844 -149.05851562 434.04476563 -149.92578125 433.15625 C-150.53035156 432.57230469 -151.13492188 431.98835938 -151.7578125 431.38671875 C-161.97827217 420.73478849 -166.51866915 404.79126106 -166.30737305 390.39355469 C-166.29888431 389.4028233 -166.29039557 388.4120919 -166.28164959 387.39133835 C-166.07098204 376.57023849 -164.53879451 366.0268805 -162.8203125 355.359375 C-162.49475342 353.26319169 -162.17045656 351.16681202 -161.84733582 349.07025146 C-161.17298279 344.71904173 -160.48707316 340.36987924 -159.79174805 336.02197266 C-158.91014587 330.50640444 -158.05289857 324.98739594 -157.2037096 319.46675491 C-156.53807093 315.15157076 -155.86209322 310.83805551 -155.18289757 306.52498627 C-154.86352617 304.49242813 -154.54659158 302.45948526 -154.23237038 300.42612457 C-149.11806396 267.49090834 -149.11806396 267.49090834 -142.17578125 252.90625 C-141.66772949 251.80724365 -141.66772949 251.80724365 -141.14941406 250.68603516 C-128.19226662 223.29583463 -107.08542558 197.41430182 -82.92578125 179.15625 C-81.96800781 178.40472656 -81.01023437 177.65320313 -80.0234375 176.87890625 C-67.72502222 167.3662324 -55.2054894 161.16209423 -39.92578125 158.15625 C-40.39628906 157.79273438 -40.86679688 157.42921875 -41.3515625 157.0546875 C-41.97417969 156.55195313 -42.59679687 156.04921875 -43.23828125 155.53125 C-43.85316406 155.04398438 -44.46804687 154.55671875 -45.1015625 154.0546875 C-50.45539365 148.48303453 -50.44534772 142.5893263 -50.42578125 135.28125 C-50.45414062 134.32605469 -50.4825 133.37085938 -50.51171875 132.38671875 C-50.53006794 125.69843828 -49.22472955 121.32790529 -44.92578125 116.15625 C-40.72578125 112.15625 -40.72578125 112.15625 -36.92578125 112.15625 C-37.58211548 110.47390259 -37.58211548 110.47390259 -38.25170898 108.75756836 C-38.54327377 108.01019913 -38.83483856 107.2628299 -39.13523865 106.49281311 C-39.79444296 104.80326713 -40.45375804 103.11376436 -41.11317444 101.42430115 C-42.9344269 96.75784438 -44.75397945 92.09073723 -46.5703125 87.42236328 C-51.22424455 75.46787721 -51.22424455 75.46787721 -55.9921875 63.55859375 C-56.62459351 61.98960327 -56.62459351 61.98960327 -57.26977539 60.38891602 C-58.01549204 58.54549187 -58.77052251 56.70579504 -59.53686523 54.87084961 C-61.41880563 50.19568885 -62.78451013 46.27073818 -61.92578125 41.15625 C-58.24328898 37.48746321 -55.02574477 36.41266014 -49.98046875 35.453125 C-49.00293137 35.26185028 -49.00293137 35.26185028 -48.00564575 35.06671143 C-45.9397018 34.66624423 -43.87055881 34.28634432 -41.80078125 33.90625 C-40.4034 33.63668793 -39.00626108 33.36586642 -37.609375 33.09375 C-27.52109119 31.15625 -27.52109119 31.15625 -23.92578125 31.15625 C-24.14234375 29.8878125 -24.14234375 29.8878125 -24.36328125 28.59375 C-26.99529997 12.50919118 -26.99529997 12.50919118 -24.67578125 7.40625 C-17.80180543 1.78208796 -8.58335139 0.69641796 0 0 Z M165.07421875 337.15625 C165.40421875 341.11625 165.73421875 345.07625 166.07421875 349.15625 C177.62421875 349.15625 189.17421875 349.15625 201.07421875 349.15625 C201.07421875 348.82625 201.07421875 348.49625 201.07421875 348.15625 C200.02105469 347.93710937 198.96789062 347.71796875 197.8828125 347.4921875 C188.90248117 345.54486032 180.60154434 343.03548633 172.1484375 339.42578125 C168.97685078 338.02840252 168.97685078 338.02840252 165.07421875 337.15625 Z " fill="#AFEEA4" transform="translate(165.92578125,9.84375)"/>
<path d="M0 0 C26.01215762 21.26693047 42.04247876 49.05339456 46.93359375 82.3984375 C47.84509221 99.48054722 48.11193493 116.95692901 42.93359375 133.3984375 C42.68689941 134.18992187 42.44020508 134.98140625 42.18603516 135.796875 C32.18712437 166.92914971 10.97268925 193.42495994 -18.22167969 208.4765625 C-26.40132286 212.56421902 -34.5261159 216.01475804 -43.33984375 218.50097656 C-44.59974121 218.85742249 -45.85963867 219.21386841 -47.15771484 219.58111572 C-48.11758301 219.85083191 -49.07745117 220.1205481 -50.06640625 220.3984375 C-49.0568689 220.40430374 -48.04733154 220.41016998 -47.00720215 220.41621399 C-37.47347801 220.47353267 -27.93997997 220.54634194 -18.40648651 220.63415241 C-13.50570839 220.67879878 -8.60501231 220.71806751 -3.70410156 220.74487305 C1.02932047 220.77096325 5.76242586 220.81140599 10.49565125 220.86162376 C12.29762318 220.87825387 14.09964983 220.88979209 15.90168762 220.89605141 C18.43414166 220.90573465 20.96579263 220.93384335 23.49804688 220.96606445 C24.23604523 220.96462936 24.97404358 220.96319427 25.73440552 220.9617157 C31.6691186 221.06787086 37.34623614 222.19402845 41.9921875 226.15234375 C42.44722656 226.74917969 42.90226563 227.34601563 43.37109375 227.9609375 C43.84417969 228.56035156 44.31726563 229.15976562 44.8046875 229.77734375 C48.21221284 234.67050298 47.43652542 240.66361945 46.93359375 246.3984375 C44.54925865 251.43203383 40.93365802 254.89840537 35.93359375 257.3984375 C36.47628906 257.76195312 37.01898438 258.12546875 37.578125 258.5 C42.04062413 261.6358102 45.33043614 263.98778057 46.93359375 269.3984375 C47.75003877 276.80845118 47.63828907 282.45566447 42.93359375 288.3984375 C40.99465214 289.98269467 39.12447975 291.15361591 36.93359375 292.3984375 C37.65546875 292.8934375 38.37734375 293.3884375 39.12109375 293.8984375 C43.50839925 297.79826461 46.47324603 301.4101458 47.38671875 307.33984375 C47.61626459 313.89009812 47.03823351 318.24132601 42.93359375 323.3984375 C40.68036707 325.28979694 38.42877995 326.81495395 35.93359375 328.3984375 C36.84109375 328.9553125 37.74859375 329.5121875 38.68359375 330.0859375 C42.35762628 332.70015295 44.91283214 335.35691428 46.93359375 339.3984375 C47.4268813 345.25319461 47.79103663 350.58828031 45.24609375 355.9609375 C40.08127247 361.40493831 35.45890595 364.40056664 27.81306648 364.65291309 C26.20534841 364.66514771 24.59752438 364.66649639 22.98977661 364.65913391 C22.10008017 364.66295946 21.21038374 364.66678501 20.2937268 364.67072648 C17.31831602 364.68102913 14.3430992 364.6770695 11.36767578 364.6730957 C9.23201316 364.6774437 7.0963521 364.68262714 4.96069336 364.68858337 C-0.83684183 364.70197547 -6.63431185 364.70255178 -12.43185949 364.70002007 C-17.27283126 364.69895046 -22.11378983 364.7038335 -26.95475876 364.7086255 C-38.37626197 364.71972151 -49.79773229 364.72015761 -61.21923828 364.71411133 C-72.99920701 364.70807113 -84.77905631 364.72038356 -96.55900466 364.7416814 C-106.67552288 364.75929879 -116.79200309 364.76529851 -126.90853608 364.76204365 C-132.94947247 364.76023081 -138.99032368 364.76286713 -145.03124619 364.77675819 C-150.71282392 364.789334 -156.39421553 364.78739461 -162.07579041 364.77434731 C-164.15908496 364.77198142 -166.2423926 364.77471663 -168.32567215 364.78297043 C-171.1735376 364.79343844 -174.02077861 364.78533658 -176.86862183 364.7726593 C-177.6894531 364.78003359 -178.51028438 364.78740787 -179.35598934 364.79500562 C-185.12663133 364.74110991 -191.12043138 364.05774085 -195.59639537 360.01733094 C-200.31965427 354.55176237 -201.58753259 350.32417942 -201.4453125 343.22265625 C-200.75634748 338.08738089 -198.37208641 334.30453843 -194.3984375 331.01953125 C-192.75390625 329.8984375 -192.75390625 329.8984375 -190.06640625 328.3984375 C-190.5253125 328.058125 -190.98421875 327.7178125 -191.45703125 327.3671875 C-196.65906487 323.25801808 -200.30122843 319.02428523 -201.41015625 312.3203125 C-201.6938729 306.12583231 -199.69892549 302.19839461 -195.62890625 297.7109375 C-193.50850849 295.79740781 -191.39995295 294.04056296 -189.06640625 292.3984375 C-189.95328125 291.8621875 -190.84015625 291.3259375 -191.75390625 290.7734375 C-196.08370222 287.89032692 -199.39609095 284.40938341 -201.06640625 279.3984375 C-201.60435645 273.05062519 -200.71218931 268.69070324 -197.06640625 263.3984375 C-194.52224558 261.04043492 -191.9501774 259.3209516 -189.06640625 257.3984375 C-189.97390625 256.8415625 -190.88140625 256.2846875 -191.81640625 255.7109375 C-196.42930778 252.42868064 -199.53010885 248.90350319 -201.06640625 243.3984375 C-201.75415996 237.40515517 -200.93283801 234.11846951 -197.50390625 229.16015625 C-195.09834056 226.2120309 -192.45736969 224.09391922 -189.06640625 222.3984375 C-187.43863134 222.2845185 -185.80640291 222.23169872 -184.17480469 222.20898438 C-183.14969788 222.1922316 -182.12459106 222.17547882 -181.06842041 222.15821838 C-179.94884949 222.14467819 -178.82927856 222.131138 -177.67578125 222.1171875 C-176.51512146 222.09909531 -175.35446167 222.08100311 -174.15863037 222.06236267 C-171.66852753 222.02380152 -169.17839229 221.98728937 -166.68823242 221.9526062 C-160.27766392 221.86291928 -153.86735333 221.75802109 -147.45703125 221.65234375 C-146.20277344 221.63188492 -144.94851563 221.61142609 -143.65625 221.59034729 C-130.11976205 221.36194804 -116.59366457 220.94908898 -103.06640625 220.3984375 C-104.73703125 219.99625 -104.73703125 219.99625 -106.44140625 219.5859375 C-126.05947647 214.63758612 -142.5686584 205.4165457 -158.06640625 192.3984375 C-158.77796875 191.810625 -159.48953125 191.2228125 -160.22265625 190.6171875 C-183.6125101 170.82577271 -198.05296589 140.31657398 -200.86791992 110.03955078 C-201.90975431 96.17661789 -201.06816761 82.94844441 -198.06640625 69.3984375 C-197.87304688 68.38007813 -197.6796875 67.36171875 -197.48046875 66.3125 C-193.11965116 45.64109196 -181.19404386 26.62819198 -166.46533203 11.81201172 C-165.17494576 10.50811355 -163.91409701 9.17515946 -162.65625 7.83984375 C-120.58497276 -36.16062786 -46.50375558 -36.19017367 0 0 Z " fill="#FDDF7C" transform="translate(465.06640625,137.6015625)"/>
<path d="M0 0 C1.70736328 0.01353516 1.70736328 0.01353516 3.44921875 0.02734375 C6.21637881 0.0505972 8.9830676 0.08327132 11.75 0.125 C11.75 0.455 11.75 0.785 11.75 1.125 C10.66203125 1.30675781 9.5740625 1.48851563 8.453125 1.67578125 C-16.13850028 5.84509142 -38.11823782 13.49557095 -57.25 30.125 C-58.06984375 30.81207031 -58.8896875 31.49914062 -59.734375 32.20703125 C-82.45472264 51.78745507 -96.56841149 80.51606214 -100.25 110.125 C-101.36803163 126.13407765 -100.45787201 141.63764456 -96.25 157.125 C-96.07871582 157.78322754 -95.90743164 158.44145508 -95.73095703 159.11962891 C-91.42940866 175.19775062 -82.93619359 190.43852397 -72.25 203.125 C-71.45464844 204.094375 -70.65929687 205.06375 -69.83984375 206.0625 C-56.10247018 221.97547572 -38.29959602 233.33962571 -18.625 240.5 C-18.00560547 240.72679443 -17.38621094 240.95358887 -16.74804688 241.18725586 C-2.66819581 245.96383455 10.98633927 246.55663937 25.72219658 246.53569031 C29.19128745 246.5311583 32.65988266 246.54535954 36.12892151 246.56408691 C44.7317362 246.60679605 53.3345368 246.61812802 61.93743896 246.63031006 C69.2396574 246.64185422 76.54164518 246.6654333 83.84376717 246.70500183 C87.25161197 246.7185239 90.65914048 246.71441251 94.06700134 246.70959473 C96.16112671 246.71893606 98.25524861 246.72910506 100.34936523 246.74023438 C101.28821564 246.73408615 102.22706604 246.72793793 103.19436646 246.72160339 C109.6872067 246.78204073 115.67392602 247.50420832 120.80859375 251.87890625 C121.26363281 252.47574219 121.71867188 253.07257813 122.1875 253.6875 C122.66058594 254.28691406 123.13367188 254.88632812 123.62109375 255.50390625 C127.02861909 260.39706548 126.25293167 266.39018195 125.75 272.125 C123.3656649 277.15859633 119.75006427 280.62496787 114.75 283.125 C115.29269531 283.48851562 115.83539063 283.85203125 116.39453125 284.2265625 C120.85703038 287.3623727 124.14684239 289.71434307 125.75 295.125 C126.56644502 302.53501368 126.45469532 308.18222697 121.75 314.125 C119.81105839 315.70925717 117.940886 316.88017841 115.75 318.125 C116.471875 318.62 117.19375 319.115 117.9375 319.625 C122.3248055 323.52482711 125.28965228 327.1367083 126.203125 333.06640625 C126.43267084 339.61666062 125.85463976 343.96788851 121.75 349.125 C119.49677332 351.01635944 117.2451862 352.54151645 114.75 354.125 C115.6575 354.681875 116.565 355.23875 117.5 355.8125 C121.17403253 358.42671545 123.72923839 361.08347678 125.75 365.125 C126.24328755 370.97975711 126.60744288 376.31484281 124.0625 381.6875 C118.89767872 387.13150081 114.2753122 390.12712914 106.62947273 390.37947559 C105.02175466 390.39171021 103.41393063 390.39305889 101.80618286 390.38569641 C100.91648642 390.38952196 100.02678999 390.39334751 99.11013305 390.39728898 C96.13472227 390.40759163 93.15950545 390.403632 90.18408203 390.3996582 C88.04841941 390.4040062 85.91275835 390.40918964 83.77709961 390.41514587 C77.97956442 390.42853797 72.1820944 390.42911428 66.38454676 390.42658257 C61.54357499 390.42551296 56.70261642 390.430396 51.86164749 390.435188 C40.44014428 390.44628401 29.01867396 390.44672011 17.59716797 390.44067383 C5.81719924 390.43463363 -5.96265006 390.44694606 -17.74259841 390.4682439 C-27.85911663 390.48586129 -37.97559684 390.49186101 -48.09212983 390.48860615 C-54.13306622 390.48679331 -60.17391743 390.48942963 -66.21483994 390.50332069 C-71.89641767 390.5158965 -77.57780928 390.51395711 -83.25938416 390.50090981 C-85.34267871 390.49854392 -87.42598635 390.50127913 -89.5092659 390.50953293 C-92.35713135 390.52000094 -95.20437236 390.51189908 -98.05221558 390.4992218 C-98.87304685 390.50659609 -99.69387813 390.51397037 -100.53958309 390.52156812 C-106.31022508 390.46767241 -112.30402513 389.78430335 -116.77998912 385.74389344 C-121.50324802 380.27832487 -122.77112634 376.05074192 -122.62890625 368.94921875 C-121.93994123 363.81394339 -119.55568016 360.03110093 -115.58203125 356.74609375 C-113.9375 355.625 -113.9375 355.625 -111.25 354.125 C-111.70890625 353.7846875 -112.1678125 353.444375 -112.640625 353.09375 C-117.84265862 348.98458058 -121.48482218 344.75084773 -122.59375 338.046875 C-122.87746665 331.85239481 -120.88251924 327.92495711 -116.8125 323.4375 C-114.69210224 321.52397031 -112.5835467 319.76712546 -110.25 318.125 C-111.136875 317.58875 -112.02375 317.0525 -112.9375 316.5 C-117.26729597 313.61688942 -120.5796847 310.13594591 -122.25 305.125 C-122.7879502 298.77718769 -121.89578306 294.41726574 -118.25 289.125 C-115.70583933 286.76699742 -113.13377115 285.0475141 -110.25 283.125 C-111.1575 282.568125 -112.065 282.01125 -113 281.4375 C-117.61290153 278.15524314 -120.7137026 274.63006569 -122.25 269.125 C-122.93775371 263.13171767 -122.11643176 259.84503201 -118.6875 254.88671875 C-116.28193431 251.9385934 -113.64096344 249.82048172 -110.25 248.125 C-108.62222509 248.011081 -106.98999666 247.95826122 -105.35839844 247.93554688 C-104.33329163 247.9187941 -103.30818481 247.90204132 -102.25201416 247.88478088 C-101.13244324 247.87124069 -100.01287231 247.8577005 -98.859375 247.84375 C-97.69871521 247.82565781 -96.53805542 247.80756561 -95.34222412 247.78892517 C-92.85212128 247.75036402 -90.36198604 247.71385187 -87.87182617 247.6791687 C-81.46125767 247.58948178 -75.05094708 247.48458359 -68.640625 247.37890625 C-67.38636719 247.35844742 -66.13210938 247.33798859 -64.83984375 247.31690979 C-51.3033558 247.08851054 -37.77725832 246.67565148 -24.25 246.125 C-25.920625 245.7228125 -25.920625 245.7228125 -27.625 245.3125 C-47.24307022 240.36414862 -63.75225215 231.1431082 -79.25 218.125 C-79.9615625 217.5371875 -80.673125 216.949375 -81.40625 216.34375 C-104.79610385 196.55233521 -119.23655964 166.04313648 -122.05151367 135.76611328 C-123.09334806 121.90318039 -122.25176136 108.67500691 -119.25 95.125 C-119.05664062 94.10664063 -118.86328125 93.08828125 -118.6640625 92.0390625 C-114.30324491 71.36765446 -102.37763761 52.35475448 -87.64892578 37.53857422 C-86.35853951 36.23467605 -85.09769076 34.90172196 -83.83984375 33.56640625 C-62.65538347 11.41052451 -30.22705928 -0.46393361 0 0 Z " fill="#FECF64" transform="translate(386.25,111.875)"/>
<path d="M0 0 C5.17245106 -0.2337831 10.17593481 0.52771212 15.26171875 1.40625 C15.93912109 1.51549805 16.61652344 1.62474609 17.31445312 1.73730469 C23.0042797 2.80100632 27.00315898 5.08519023 31.07421875 9.15625 C31.96442279 16.57898075 30.64252998 23.91681336 29.07421875 31.15625 C29.780625 31.25421875 30.48703125 31.3521875 31.21484375 31.453125 C38.39505485 32.49948742 45.51629672 33.76318014 52.63671875 35.15625 C53.50522461 35.3222168 54.37373047 35.48818359 55.26855469 35.65917969 C56.50460449 35.90522949 56.50460449 35.90522949 57.765625 36.15625 C58.49982666 36.300625 59.23402832 36.445 59.99047852 36.59375 C62.35969149 37.23331259 64.05738518 37.72979331 66.07421875 39.15625 C67.9926757 42.80890343 68.19293875 44.63937407 67.26464844 48.6809082 C66.77800341 50.00943728 66.27030316 51.33037092 65.74609375 52.64453125 C65.47182556 53.37384354 65.19755737 54.10315582 64.91497803 54.85456848 C63.98871246 57.29695481 63.0333953 59.72661339 62.07421875 62.15625 C61.3857515 63.92744873 60.69760883 65.69877367 60.00976562 67.47021484 C57.80930117 73.1059822 55.56918247 78.72559176 53.32421875 84.34375 C52.17121909 87.23446071 51.01919964 90.12555261 49.86907959 93.01741028 C49.16079937 94.79782212 48.45081788 96.57755847 47.73883057 98.35649109 C46.05360086 102.58784168 44.45745628 106.81363992 43.07421875 111.15625 C43.96109375 111.6925 44.84796875 112.22875 45.76171875 112.78125 C51.23197697 116.45395292 54.38257551 120.81070825 56.07421875 127.15625 C56.28566879 129.83095569 56.40850887 132.36180208 56.38671875 135.03125 C56.37934692 136.09243042 56.37934692 136.09243042 56.37182617 137.17504883 C56.21627119 144.09525109 55.24033248 148.59111532 50.69921875 153.96875 C45.61514541 158.20547778 42.03193628 159.59119926 35.421875 159.5625 C34.31699989 159.57875427 34.31699989 159.57875427 33.18980408 159.59533691 C30.83868747 159.62946165 28.48804956 159.64513488 26.13671875 159.65625 C12.2837838 159.72309517 -1.3692134 159.98632156 -13.92578125 166.65625 C-14.58819824 166.99881836 -15.25061523 167.34138672 -15.93310547 167.69433594 C-23.28350437 171.65264758 -29.59145612 176.76473282 -35.92578125 182.15625 C-37.17156588 183.19828634 -38.41766455 184.23994734 -39.6640625 185.28125 C-48.499292 192.71163751 -56.37999191 200.26563598 -63.6171875 209.296875 C-65.07479616 211.10223801 -66.55878113 212.88689959 -68.078125 214.640625 C-77.43156424 225.53323778 -85.15715618 237.90836656 -91.36328125 250.84375 C-91.65662354 251.44654785 -91.94996582 252.0493457 -92.25219727 252.67041016 C-98.1274113 265.50518418 -100.91358442 279.0510149 -103.05078125 292.90625 C-103.30686156 294.50991255 -103.56387034 296.11342709 -103.82177734 297.71679688 C-104.43384251 301.54129181 -105.03233257 305.36771044 -105.62304688 309.19555664 C-105.88594877 310.89827044 -106.1517042 312.60054318 -106.41796875 314.30273438 C-107.64019105 322.12611012 -108.76100624 329.96196373 -109.8515625 337.8046875 C-110.18837023 340.21360209 -110.52561782 342.62245521 -110.86328125 345.03125 C-111.02940918 346.22314941 -111.19553711 347.41504883 -111.36669922 348.64306641 C-112.4342731 356.15300257 -113.72636231 363.58677378 -115.17578125 371.03125 C-116.73352782 379.21290808 -117.59348764 386.80462091 -116.92578125 395.15625 C-116.81943359 396.61804688 -116.81943359 396.61804688 -116.7109375 398.109375 C-115.15237535 411.20830182 -109.00475101 423.67893421 -99.92578125 433.15625 C-99.21035156 433.92324219 -98.49492188 434.69023437 -97.7578125 435.48046875 C-87.65978174 445.44318251 -74.78205754 450.87850595 -60.92578125 453.15625 C-60.92578125 453.48625 -60.92578125 453.81625 -60.92578125 454.15625 C-67.80843882 454.23298368 -74.69098409 454.28513367 -81.57397461 454.32104492 C-83.91027956 454.3360326 -86.24655687 454.35642967 -88.58276367 454.38256836 C-113.85941714 454.65807794 -113.85941714 454.65807794 -123.92578125 451.15625 C-124.61583252 450.91672607 -125.30588379 450.67720215 -126.0168457 450.43041992 C-135.69640842 446.6435557 -142.78517842 440.47181401 -149.92578125 433.15625 C-150.53035156 432.57230469 -151.13492188 431.98835938 -151.7578125 431.38671875 C-161.97827217 420.73478849 -166.51866915 404.79126106 -166.30737305 390.39355469 C-166.29888431 389.4028233 -166.29039557 388.4120919 -166.28164959 387.39133835 C-166.07098204 376.57023849 -164.53879451 366.0268805 -162.8203125 355.359375 C-162.49475342 353.26319169 -162.17045656 351.16681202 -161.84733582 349.07025146 C-161.17298279 344.71904173 -160.48707316 340.36987924 -159.79174805 336.02197266 C-158.91014587 330.50640444 -158.05289857 324.98739594 -157.2037096 319.46675491 C-156.53807093 315.15157076 -155.86209322 310.83805551 -155.18289757 306.52498627 C-154.86352617 304.49242813 -154.54659158 302.45948526 -154.23237038 300.42612457 C-149.11806396 267.49090834 -149.11806396 267.49090834 -142.17578125 252.90625 C-141.66772949 251.80724365 -141.66772949 251.80724365 -141.14941406 250.68603516 C-128.19226662 223.29583463 -107.08542558 197.41430182 -82.92578125 179.15625 C-81.96800781 178.40472656 -81.01023437 177.65320313 -80.0234375 176.87890625 C-67.72502222 167.3662324 -55.2054894 161.16209423 -39.92578125 158.15625 C-40.39628906 157.79273438 -40.86679688 157.42921875 -41.3515625 157.0546875 C-41.97417969 156.55195313 -42.59679687 156.04921875 -43.23828125 155.53125 C-43.85316406 155.04398438 -44.46804687 154.55671875 -45.1015625 154.0546875 C-50.45539365 148.48303453 -50.44534772 142.5893263 -50.42578125 135.28125 C-50.45414062 134.32605469 -50.4825 133.37085938 -50.51171875 132.38671875 C-50.53006794 125.69843828 -49.22472955 121.32790529 -44.92578125 116.15625 C-40.72578125 112.15625 -40.72578125 112.15625 -36.92578125 112.15625 C-37.58211548 110.47390259 -37.58211548 110.47390259 -38.25170898 108.75756836 C-38.54327377 108.01019913 -38.83483856 107.2628299 -39.13523865 106.49281311 C-39.79444296 104.80326713 -40.45375804 103.11376436 -41.11317444 101.42430115 C-42.9344269 96.75784438 -44.75397945 92.09073723 -46.5703125 87.42236328 C-51.22424455 75.46787721 -51.22424455 75.46787721 -55.9921875 63.55859375 C-56.62459351 61.98960327 -56.62459351 61.98960327 -57.26977539 60.38891602 C-58.01549204 58.54549187 -58.77052251 56.70579504 -59.53686523 54.87084961 C-61.41880563 50.19568885 -62.78451013 46.27073818 -61.92578125 41.15625 C-58.24328898 37.48746321 -55.02574477 36.41266014 -49.98046875 35.453125 C-49.00293137 35.26185028 -49.00293137 35.26185028 -48.00564575 35.06671143 C-45.9397018 34.66624423 -43.87055881 34.28634432 -41.80078125 33.90625 C-40.4034 33.63668793 -39.00626108 33.36586642 -37.609375 33.09375 C-27.52109119 31.15625 -27.52109119 31.15625 -23.92578125 31.15625 C-24.14234375 29.8878125 -24.14234375 29.8878125 -24.36328125 28.59375 C-26.99529997 12.50919118 -26.99529997 12.50919118 -24.67578125 7.40625 C-17.80180543 1.78208796 -8.58335139 0.69641796 0 0 Z " fill="#7FD394" transform="translate(165.92578125,9.84375)"/>
<path d="M0 0 C5.17245106 -0.2337831 10.17593481 0.52771212 15.26171875 1.40625 C15.93912109 1.51549805 16.61652344 1.62474609 17.31445312 1.73730469 C23.0042797 2.80100632 27.00315898 5.08519023 31.07421875 9.15625 C31.96442279 16.57898075 30.64252998 23.91681336 29.07421875 31.15625 C29.780625 31.25421875 30.48703125 31.3521875 31.21484375 31.453125 C38.39505485 32.49948742 45.51629672 33.76318014 52.63671875 35.15625 C53.50522461 35.3222168 54.37373047 35.48818359 55.26855469 35.65917969 C56.50460449 35.90522949 56.50460449 35.90522949 57.765625 36.15625 C58.49982666 36.300625 59.23402832 36.445 59.99047852 36.59375 C62.35969149 37.23331259 64.05738518 37.72979331 66.07421875 39.15625 C67.99346503 42.8097671 68.19340489 44.63874914 67.26245117 48.6809082 C66.77514899 50.00941357 66.26688684 51.33034689 65.7421875 52.64453125 C65.46771286 53.37384354 65.19323822 54.10315582 64.91044617 54.85456848 C63.98452551 57.29642396 63.03048067 59.72612939 62.07421875 62.15625 C61.39064757 63.92726642 60.70788836 65.69859642 60.02587891 67.47021484 C58.21519434 72.14983693 56.37530165 76.81734732 54.52319336 81.48071289 C53.37364733 84.37667987 52.23048712 87.27511314 51.08789062 90.17382812 C50.35063404 92.03660625 49.61301725 93.89924186 48.875 95.76171875 C48.53745193 96.61799362 48.19990387 97.47426849 47.85212708 98.35649109 C47.53136703 99.16205948 47.21060699 99.96762787 46.88012695 100.79760742 C46.60288284 101.49689865 46.32563873 102.19618988 46.03999329 102.91667175 C44.83300458 105.71561246 43.43736884 108.42994982 42.07421875 111.15625 C16.00421875 111.15625 -10.06578125 111.15625 -36.92578125 111.15625 C-51.08313572 76.40637994 -51.08313572 76.40637994 -54.73706055 67.12304688 C-55.33611269 65.60747332 -55.94019201 64.09387975 -56.54858398 62.58203125 C-57.46049383 60.31424607 -58.35682751 58.04084411 -59.25 55.765625 C-59.52172531 55.09899841 -59.79345062 54.43237183 -60.07341003 53.74554443 C-61.75112263 49.40660757 -62.60426575 45.78720884 -61.92578125 41.15625 C-58.49275222 37.28263133 -54.95886716 36.39994103 -49.98046875 35.453125 C-49.00293137 35.26185028 -49.00293137 35.26185028 -48.00564575 35.06671143 C-45.9397018 34.66624423 -43.87055881 34.28634432 -41.80078125 33.90625 C-40.4034 33.63668793 -39.00626108 33.36586642 -37.609375 33.09375 C-27.52109119 31.15625 -27.52109119 31.15625 -23.92578125 31.15625 C-24.07015625 30.310625 -24.21453125 29.465 -24.36328125 28.59375 C-26.99529997 12.50919118 -26.99529997 12.50919118 -24.67578125 7.40625 C-17.80180543 1.78208796 -8.58335139 0.69641796 0 0 Z " fill="#AFEEA4" transform="translate(165.92578125,9.84375)"/>
<path d="M0 0 C0.77108597 -0.0065712 1.54217194 -0.0131424 2.33662415 -0.01991272 C4.88872375 -0.03962519 7.44076457 -0.05130343 9.99291992 -0.0612793 C11.30146722 -0.06739259 11.30146722 -0.06739259 12.63644981 -0.07362938 C17.25339902 -0.0944809 21.87031859 -0.10878685 26.48730469 -0.11816406 C31.2522213 -0.12922945 36.01667105 -0.1636333 40.78142262 -0.20333576 C44.44891724 -0.22949768 48.1163005 -0.23785549 51.78388023 -0.24144554 C53.54012901 -0.24631224 55.29637279 -0.25792863 57.05253029 -0.27648354 C59.51325994 -0.30086761 61.97277993 -0.29991177 64.43359375 -0.29296875 C65.15536804 -0.30577881 65.87714233 -0.31858887 66.62078857 -0.33178711 C71.68807117 -0.27981672 74.49416526 1.02651186 78.41088867 4.17700195 C84.25741884 10.28928349 85.79139935 15.72020104 85.72338867 24.05200195 C85.71601685 25.11318237 85.71601685 25.11318237 85.70849609 26.19580078 C85.55294111 33.11600304 84.5770024 37.61186728 80.03588867 42.98950195 C75.22406562 46.9993545 72.03877665 48.54813726 65.70776367 48.6887207 C65.04890167 48.70685318 64.39003967 48.72498566 63.71121216 48.7436676 C61.52781719 48.79909665 59.34474682 48.83269159 57.16088867 48.86450195 C55.62327943 48.89550827 54.08568181 48.92709564 52.5480957 48.95922852 C48.38838462 49.03972877 44.22867416 49.0957233 40.06848145 49.14447021 C37.34430888 49.17781696 34.62030235 49.21817892 31.89624023 49.25952148 C27.26207132 49.32716123 22.62807853 49.37413309 17.99353027 49.40615845 C16.20141564 49.4199542 14.40932953 49.43825917 12.61730957 49.46127319 C-8.26007866 49.70858123 -8.26007866 49.70858123 -14.96411133 44.23950195 C-15.50036133 43.55887695 -16.03661133 42.87825195 -16.58911133 42.17700195 C-17.14598633 41.49637695 -17.70286133 40.81575195 -18.27661133 40.11450195 C-21.48393945 35.37987472 -20.88519926 29.98823847 -20.96411133 24.48950195 C-21.00149414 23.52077148 -21.03887695 22.55204102 -21.07739258 21.55395508 C-21.15975517 14.78649555 -19.97866063 10.39860972 -15.58911133 5.17700195 C-10.57483076 0.52088428 -6.61968096 0.02445526 0 0 Z " fill="#847E87" transform="translate(136.589111328125,120.822998046875)"/>
<path d="M0 0 C0.66 -0.00128906 1.32 -0.00257813 2 -0.00390625 C5.13273687 0.88329462 6.15547009 1.84059414 8 4.5625 C8.48957298 7.99217161 8.37582316 11.35720239 8.25 14.8125 C8.23195313 15.74835938 8.21390625 16.68421875 8.1953125 17.6484375 C8.14825673 19.95417015 8.08253713 22.25780945 8 24.5625 C8.59530518 24.677146 9.19061035 24.79179199 9.80395508 24.90991211 C18.30154161 26.65121375 24.30972199 29.76525426 29.5 36.9375 C32.11327987 41.28564634 33.25487129 44.4650743 33 49.5625 C30.9375 52.5625 30.9375 52.5625 28 54.5625 C24.9375 55.125 24.9375 55.125 22 54.5625 C18.62484059 52.08076514 17.02966777 48.97182441 15.3203125 45.24609375 C12.90841939 42.17057325 9.77761835 40.81996414 5.93847656 40.26391602 C3.63849897 40.12377855 1.36645481 40.10396805 -0.9375 40.125 C-2.09668945 40.0950293 -2.09668945 40.0950293 -3.27929688 40.06445312 C-8.98889391 40.0692795 -12.29372765 41.32468091 -17 44.5625 C-20.65008467 48.44807401 -20.5024248 52.80731259 -20.3515625 57.90234375 C-19.73044853 62.6021061 -17.60041124 65.24414143 -14.02734375 68.1875 C-9.51355367 70.23763433 -5.15387307 70.01673052 -0.25 70.0625 C11.27795654 70.17184376 19.69792428 72.0289701 28.5625 79.8125 C35.59742219 87.74933529 37.64211381 94.87188218 37.40625 105.33203125 C36.92081934 113.02437356 33.27722398 119.81233869 27.6875 125.0625 C21.61537971 129.60653704 15.47810674 131.6458874 8 132.5625 C8.04640625 133.87605469 8.0928125 135.18960938 8.140625 136.54296875 C8.17815266 138.27862304 8.21455175 140.01430199 8.25 141.75 C8.28351563 142.61431641 8.31703125 143.47863281 8.3515625 144.36914062 C8.41596107 148.57114764 8.36365268 150.94168729 6.19921875 154.63671875 C4 156.5625 4 156.5625 0.5625 157.1875 C-4.01875686 156.38377073 -5.225043 155.27660061 -8 151.5625 C-8.59962864 148.26656203 -8.4741962 145.08591696 -8.3125 141.75 C-8.28994141 140.86634766 -8.26738281 139.98269531 -8.24414062 139.07226562 C-8.18547428 136.9016109 -8.09579979 134.7318331 -8 132.5625 C-8.90383423 132.48032227 -8.90383423 132.48032227 -9.82592773 132.39648438 C-10.62458252 132.31720703 -11.4232373 132.23792969 -12.24609375 132.15625 C-13.42836548 132.04313477 -13.42836548 132.04313477 -14.63452148 131.92773438 C-22.98355391 130.63862791 -28.10606304 125.08774929 -33 118.5625 C-34.77660686 115.62448671 -35.29510353 113.42710374 -35.3125 110 C-35.32925781 109.23558594 -35.34601563 108.47117187 -35.36328125 107.68359375 C-34.90428397 105.00364191 -34.18545065 104.14967117 -32 102.5625 C-28.9130022 102.17050028 -26.94921649 101.92838854 -24 102.5625 C-21.75 104.6875 -21.75 104.6875 -20 107.5625 C-17.10470884 112.14281457 -17.10470884 112.14281457 -13 115.5625 C-8.91125553 116.0301219 -4.80009486 115.93285037 -0.6875 115.9375 C0.44107422 115.96199219 1.56964844 115.98648438 2.73242188 116.01171875 C9.11950211 116.03427465 13.18863204 115.93720599 18 111.5625 C21.14749511 107.89042237 21.52726515 104.52919945 21.34765625 99.84375 C20.74812327 95.90973581 19.4245717 93.75272593 17 90.5625 C10.81524216 86.34382333 3.9500564 87.12774513 -3.23828125 87.12304688 C-13.62874366 86.92454661 -21.42661695 84.01834189 -29.01953125 76.85546875 C-35.38764032 69.48252984 -37.3790934 61.43756525 -37.2734375 51.91796875 C-36.5220659 42.69756579 -31.05500231 35.89221937 -24.203125 30.0234375 C-19.09404584 26.15771831 -14.44949669 24.44306488 -8 24.5625 C-8.04640625 23.24894531 -8.0928125 21.93539062 -8.140625 20.58203125 C-8.17815266 18.84637696 -8.21455175 17.11069801 -8.25 15.375 C-8.28351563 14.51068359 -8.31703125 13.64636719 -8.3515625 12.75585938 C-8.4156224 8.57595077 -8.35210642 6.17634924 -6.234375 2.484375 C-3.88685023 0.46517537 -3.03853714 -0.10088893 0 0 Z " fill="#878086" transform="translate(388,157.4375)"/>
<path d="M0 0 C3.32819062 0.98613055 4.36711048 1.32318893 6.375 4 C6.71557617 6.26831055 6.71557617 6.26831055 6.66796875 8.88671875 C6.6534668 10.2934082 6.6534668 10.2934082 6.63867188 11.72851562 C6.61353516 12.70498047 6.58839844 13.68144531 6.5625 14.6875 C6.54219727 16.16959961 6.54219727 16.16959961 6.52148438 17.68164062 C6.48612203 20.12164231 6.43677033 22.56054719 6.375 25 C7.73431641 24.94585937 7.73431641 24.94585937 9.12109375 24.890625 C15.29657527 25.09820421 21.06230747 28.68730747 25.375 33 C28.64721443 37.38898451 31.70629399 41.78047024 32.0625 47.375 C31.375 51 31.375 51 29.3125 53.5625 C25.46338451 55.44610971 23.45079849 55.207644 19.375 54 C17.14058405 51.84538462 16.27527024 49.77787463 15 46.9375 C13.0514966 43.41520539 12.03842278 42.63240601 8.375 41 C5.07578808 40.54274602 1.82647812 40.53571284 -1.5 40.5625 C-2.37269531 40.54251953 -3.24539062 40.52253906 -4.14453125 40.50195312 C-10.14695574 40.50646623 -13.7489203 41.4433301 -18.625 45 C-21.38594442 49.72032433 -22.21719527 53.57154333 -21.625 59 C-19.63655883 64.33739473 -16.71832352 67.45333824 -11.625 70 C-9.91764057 70.10587852 -8.20661098 70.15535322 -6.49609375 70.17578125 C-5.46033203 70.19962891 -4.42457031 70.22347656 -3.35742188 70.24804688 C-1.18834092 70.29047703 0.9809849 70.32201506 3.15039062 70.34179688 C13.1707791 70.60760607 20.22263195 73.23505277 27.5859375 80.0703125 C34.07581835 87.07031499 36.8737436 94.38431051 36.6875 103.87109375 C35.88781856 111.8779042 32.04440923 119.31842465 26.375 125 C19.89653405 130.14466413 14.49297606 131.47852592 6.375 132 C6.40118408 132.61520508 6.42736816 133.23041016 6.4543457 133.86425781 C6.55845921 136.65924408 6.62336749 139.45382258 6.6875 142.25 C6.72939453 143.21808594 6.77128906 144.18617188 6.81445312 145.18359375 C6.93790963 152.34407123 6.93790963 152.34407123 4.08203125 155.671875 C0.37638389 157.48994153 -1.70740896 157.16076771 -5.625 156 C-8.38010038 153.12766976 -8.9936163 151.16804748 -8.91796875 147.234375 C-8.90830078 146.34492188 -8.89863281 145.45546875 -8.88867188 144.5390625 C-8.86353516 143.61867188 -8.83839844 142.69828125 -8.8125 141.75 C-8.79219727 140.34621094 -8.79219727 140.34621094 -8.77148438 138.9140625 C-8.73619954 136.60878673 -8.68690281 134.3046894 -8.625 132 C-10.23761719 132.0309375 -10.23761719 132.0309375 -11.8828125 132.0625 C-19.81319391 131.93005104 -24.92463312 128.62837362 -30.6328125 123.24609375 C-34.73792429 118.61778144 -36.625 114.31080503 -36.625 108.125 C-35.625 105 -35.625 105 -34 103 C-30.54116747 101.54364946 -28.21201629 102.08694131 -24.625 103 C-22.15010552 104.67939269 -21.5343139 106.19373848 -20.25 108.9375 C-18.30707599 112.59916448 -17.21921301 113.8899645 -13.625 116 C-9.65943754 116.62159373 -5.75694195 116.60348557 -1.75 116.5625 C-0.68652344 116.58634766 0.37695312 116.61019531 1.47265625 116.63476562 C8.44362575 116.62177624 12.26031443 115.84292435 17.375 111 C20.52453461 106.61841604 19.84327435 101.15869445 19.375 96 C18.08843828 92.22072495 16.33201729 90.77565947 12.953125 88.89453125 C7.7472736 86.36143155 2.81095362 86.57650175 -2.875 86.625 C-13.57516806 86.41520937 -20.81666886 85.24654174 -29.0078125 77.84765625 C-35.28746838 71.26414605 -38.20600589 64.75810892 -38.125 55.6875 C-38.11927979 54.94129395 -38.11355957 54.19508789 -38.10766602 53.42626953 C-37.83999563 45.11857399 -34.96992696 39.33609773 -29.4375 33.1875 C-23.23171911 27.48196724 -17.06807243 24.65855222 -8.625 25 C-8.65118408 24.42032471 -8.67736816 23.84064941 -8.7043457 23.2434082 C-8.80870612 20.60005125 -8.87344327 17.95712801 -8.9375 15.3125 C-8.97939453 14.40048828 -9.02128906 13.48847656 -9.06445312 12.54882812 C-9.14895778 7.90107219 -9.14261488 5.70984664 -6.33203125 1.85546875 C-3.625 0 -3.625 0 0 0 Z " fill="#857F87" transform="translate(169.625,238)"/>
<path d="M0 0 C1.3036962 -0.00128164 1.3036962 -0.00128164 2.6337297 -0.00258917 C5.5510677 -0.00423855 8.46834843 0.00126859 11.38568115 0.00672913 C13.47491454 0.00701114 15.56414802 0.00685299 17.65338135 0.00628662 C23.33065802 0.0059992 29.00791366 0.01188701 34.68518543 0.01886058 C40.61625373 0.02510332 46.54732248 0.02569865 52.47839355 0.02688599 C63.71220983 0.02999658 74.9460164 0.03820632 86.17982841 0.04823548 C98.96806834 0.05940504 111.75630873 0.06490919 124.54455233 0.06993091 C150.8532543 0.08038914 177.16194765 0.09798334 203.47064209 0.12025452 C202.4708067 6.81216019 202.4708067 6.81216019 199.90814209 9.80775452 C199.45310303 10.3684967 198.99806396 10.92923889 198.52923584 11.50697327 C192.72537646 16.05534883 186.30461396 16.55593405 179.23248291 16.48101807 C178.3354331 16.48358134 177.43838328 16.48614462 176.51415014 16.48878556 C173.52615383 16.49370358 170.53866951 16.47726329 167.55072021 16.46083069 C165.40178438 16.45998399 163.25284768 16.4604604 161.10391235 16.4621582 C155.28218135 16.4630179 149.46063629 16.44539609 143.63894844 16.42443633 C137.55042593 16.40566538 131.46189903 16.40391875 125.37335205 16.40036011 C113.84922166 16.39104089 102.32517679 16.3664287 90.80108404 16.33631164 C77.67903204 16.30276385 64.55697592 16.28628065 51.4348917 16.27122533 C24.44676111 16.2398791 -2.5412936 16.18712092 -29.52935791 16.12025452 C-29.52935791 15.79025452 -29.52935791 15.46025452 -29.52935791 15.12025452 C-27.54935791 15.12025452 -25.56935791 15.12025452 -23.52935791 15.12025452 C-23.28185791 14.23337952 -23.03435791 13.34650452 -22.77935791 12.43275452 C-20.70329574 6.93118976 -17.77681491 3.74398302 -12.52935791 1.12025452 C-8.37743148 -0.11421547 -4.29655466 -0.01538948 0 0 Z " fill="#FEDF7C" transform="translate(308.52935791015625,485.87974548339844)"/>
<path d="M0 0 C0.87663205 -0.0034177 1.7532641 -0.0068354 2.65646076 -0.01035666 C5.5755124 -0.01691241 8.49363163 0.00500221 11.41259766 0.0269165 C13.51227293 0.02804548 15.61194979 0.02741014 17.71162415 0.02514648 C23.39912456 0.02400038 29.08628648 0.04749331 34.77370834 0.07544231 C40.72208686 0.10047298 46.67047342 0.10279929 52.61889648 0.10754395 C63.87744078 0.11996879 75.13582943 0.1527839 86.39430523 0.1929419 C99.21405559 0.23767478 112.03381344 0.2596505 124.85362244 0.27972364 C151.21972125 0.32151684 177.58568197 0.39185949 203.95166016 0.48101807 C203.3516958 4.57735045 202.95193004 7.12628978 200.13916016 10.23101807 C199.63771484 10.80336182 199.13626953 11.37570557 198.61962891 11.96539307 C194.26785121 15.9197016 189.93000156 15.76130875 184.27044678 15.7215271 C182.94224926 15.72409037 182.94224926 15.72409037 181.58721948 15.72670543 C178.61454235 15.73000467 175.64208999 15.71898943 172.66943359 15.70806885 C170.54079188 15.70750483 168.41214978 15.70782111 166.2835083 15.70895386 C160.49877174 15.70952873 154.71411777 15.69775261 148.92940044 15.68380594 C142.88622644 15.67132102 136.84305063 15.67012985 130.79986572 15.66775513 C119.35354 15.66153377 107.90725239 15.64511408 96.46094346 15.62505615 C83.43087418 15.60271754 70.40080309 15.59170885 57.37071943 15.58166528 C30.5643452 15.56074843 3.75800481 15.52555971 -23.04833984 15.48101807 C-21.13138737 9.43011592 -19.20256887 5.43691613 -13.46542358 2.3626442 C-8.90941794 0.16693956 -4.99570975 -0.07226451 0 0 Z " fill="#FEDF7C" transform="translate(308.04833984375,379.51898193359375)"/>
<path d="M0 0 C0.87900675 -0.00256327 1.75801351 -0.00512655 2.66365683 -0.0077675 C5.60258876 -0.01270028 8.54100448 0.00377929 11.47988892 0.02018738 C13.58912138 0.02103376 15.69835472 0.02055829 17.80758667 0.01885986 C23.53026681 0.01799892 29.25275841 0.03564093 34.97539473 0.05658174 C40.95715855 0.07533188 46.93892666 0.07709767 52.92071533 0.08065796 C64.24658355 0.08998329 75.57236493 0.11460376 86.89819491 0.14470643 C99.79287698 0.17823517 112.6875632 0.19473262 125.58227801 0.20979273 C152.10630193 0.24115282 178.63024876 0.2939229 205.15420532 0.36076355 C204.44370291 5.83850799 203.11452045 8.40044842 199.15420532 12.36076355 C194.09948298 15.54965448 190.05134735 15.78320207 184.27044678 15.7215271 C182.94581132 15.72537201 182.94581132 15.72537201 181.59441555 15.7292946 C178.64166498 15.7342276 175.68942815 15.71774743 172.73672485 15.70133972 C170.6176403 15.70049335 168.49855487 15.7009688 166.37947083 15.70266724 C160.6299324 15.7035282 154.88058163 15.68588589 149.13108683 15.66494536 C143.12129574 15.64619554 137.11150039 15.64442945 131.10168457 15.64086914 C119.72269259 15.63154372 108.34378705 15.60692312 96.96483314 15.57682067 C84.00969267 15.54329221 71.05454807 15.52679455 58.09937501 15.51173437 C31.45093719 15.48037407 4.8025761 15.42760382 -21.84579468 15.36076355 C-19.9987261 9.34099915 -17.69074788 5.15662036 -12.22678185 1.70753002 C-7.98412621 0.0175306 -4.51904647 -0.04844269 0 0 Z " fill="#FEDF7C" transform="translate(306.8457946777344,450.6392364501953)"/>
<path d="M0 0 C0.87967261 -0.00085442 1.75934521 -0.00170885 2.66567457 -0.00258917 C5.63068286 -0.00424401 8.5956353 0.0012775 11.56063843 0.00672913 C13.67913308 0.00701102 15.79762784 0.00685322 17.91612244 0.00628662 C23.68235753 0.00599874 29.44857198 0.01189392 35.21480227 0.01886058 C41.23530251 0.02509572 47.25580318 0.02569804 53.27630615 0.02688599 C64.6837272 0.02999883 76.0911387 0.03821158 87.49855554 0.04823548 C100.48263415 0.05939807 113.4667132 0.06490743 126.45079541 0.06993091 C153.16628875 0.08039423 179.8817736 0.09799276 206.59725952 0.12025452 C205.62647422 5.45512053 204.3062452 8.7010802 200.04158592 12.24253464 C195.68080386 14.61987239 192.55147168 14.67030481 187.67553711 14.60127258 C186.34477632 14.60639913 186.34477632 14.60639913 184.98713148 14.61162925 C182.02041755 14.61820719 179.05461246 14.59623333 176.08798218 14.57435608 C173.95904563 14.57322758 171.83010752 14.5738615 169.70117188 14.5761261 C163.9247155 14.57727408 158.14859113 14.55375071 152.37221193 14.52583027 C146.33440107 14.50083094 140.29658266 14.49847576 134.25872803 14.49372864 C122.82658017 14.48129458 111.39458525 14.448467 99.96250474 14.40833068 C86.94691534 14.36362648 73.93131865 14.3416293 60.91567159 14.32154894 C34.14278276 14.27973487 7.37002971 14.20937431 -19.40274048 14.12025452 C-18.75963382 9.37466834 -18.25769292 7.34583124 -14.46524048 4.30775452 C-13.75496704 3.7238092 -13.0446936 3.13986389 -12.31289673 2.53822327 C-8.35269816 -0.40155604 -4.7599215 -0.01669005 0 0 Z " fill="#FEDF7C" transform="translate(305.4027404785156,415.87974548339844)"/>
<path d="M0 0 C2.2090939 14.09399927 4.09382695 28.21206032 5.78979492 42.37670898 C6.19171683 45.72260404 6.6025428 49.06733462 7.01367188 52.41210938 C7.27397533 54.5702477 7.53376015 56.72844865 7.79296875 58.88671875 C7.91480026 59.87121506 8.03663177 60.85571136 8.16215515 61.87004089 C8.27259659 62.80584488 8.38303802 63.74164886 8.49682617 64.70581055 C8.59436691 65.51374557 8.69190765 66.3216806 8.79240417 67.15409851 C9.07972024 71.09287333 9 75.05075987 9 79 C16.59 79 24.18 79 32 79 C32 79.33 32 79.66 32 80 C16.82 80 1.64 80 -14 80 C-17.69545598 71.01105301 -21.36778524 62.0144671 -25 53 C-25.30834778 52.23574707 -25.61669556 51.47149414 -25.93438721 50.68408203 C-27.88481533 45.84512675 -29.81941734 41.0002353 -31.73675537 36.14807129 C-32.36802023 34.55582656 -33.00344787 32.96522561 -33.64312744 31.37634277 C-34.54835219 29.12506354 -35.43796694 26.86817885 -36.32421875 24.609375 C-36.59557144 23.94365479 -36.86692413 23.27793457 -37.14649963 22.59204102 C-38.82469977 18.25223553 -39.67864304 14.63204097 -39 10 C-35.57422245 6.13867028 -32.05488999 5.24613847 -27.08984375 4.296875 C-26.44052383 4.16935852 -25.79120392 4.04184204 -25.12220764 3.91046143 C-23.75781702 3.64514018 -22.39207694 3.38667484 -21.02514648 3.13476562 C-18.93758256 2.75001522 -16.85457211 2.3457273 -14.77148438 1.9375 C-4.71035824 0 -4.71035824 0 0 0 Z " fill="#7FD294" transform="translate(143,41)"/>
<path d="M0 0 C7.37114138 0.75514957 14.54775633 1.97602957 21.8125 3.4375 C22.93076172 3.65470703 24.04902344 3.87191406 25.20117188 4.09570312 C26.27560547 4.31033203 27.35003906 4.52496094 28.45703125 4.74609375 C29.42616455 4.93872803 30.39529785 5.1313623 31.39379883 5.32983398 C35.94140625 6.49921875 35.94140625 6.49921875 38 8 C39.91924628 11.6535171 40.11918614 13.48249914 39.18823242 17.5246582 C38.70093024 18.85316357 38.19266809 20.17409689 37.66796875 21.48828125 C37.39349411 22.21759354 37.11901947 22.94690582 36.83622742 23.69831848 C35.91030676 26.14017396 34.95626192 28.56987939 34 31 C33.31642882 32.77101642 32.63366961 34.54234642 31.95166016 36.31396484 C30.14097559 40.99358693 28.3010829 45.66109732 26.44897461 50.32446289 C25.29942858 53.22042987 24.15626837 56.11886314 23.01367188 59.01757812 C22.27641529 60.88035625 21.5387985 62.74299186 20.80078125 64.60546875 C20.46323318 65.46174362 20.12568512 66.31801849 19.77790833 67.20024109 C19.45714828 68.00580948 19.13638824 68.81137787 18.8059082 69.64135742 C18.52866409 70.34064865 18.25141998 71.03993988 17.96577454 71.76042175 C16.75878583 74.55936246 15.36315009 77.27369982 14 80 C6.41 80 -1.18 80 -9 80 C-8.42037472 69.40702596 -7.51012335 58.96289552 -6.15234375 48.4375 C-5.97397433 47.0255271 -5.79605086 45.6134978 -5.61854553 44.20141602 C-5.15771617 40.54484036 -4.6909724 36.88904522 -4.22283936 33.23339844 C-3.74317459 29.47898282 -3.26931886 25.72383421 -2.79492188 21.96875 C-1.86885074 14.64511867 -0.93650786 7.32230487 0 0 Z " fill="#7ED394" transform="translate(194,41)"/>
<path d="M0 0 C0.84064499 0.00007553 1.68128998 0.00015106 2.54740906 0.00022888 C3.45062393 0.00539017 4.35383881 0.01055145 5.28442383 0.01586914 C6.21241287 0.01728409 7.14040192 0.01869904 8.09651184 0.02015686 C11.06152566 0.02575602 14.02646407 0.03830835 16.99145508 0.05102539 C19.00121961 0.0560405 21.01098533 0.06060339 23.02075195 0.06469727 C27.9485154 0.07572518 32.87622245 0.09298922 37.80395508 0.11352539 C35.66566783 1.73083164 33.52692914 3.3005179 31.30395508 4.80102539 C26.97419639 8.80605218 24.66124829 13.64193064 24.27270508 19.55102539 C24.26225262 21.07185848 24.27281753 22.59297517 24.30395508 24.11352539 C24.28848633 24.86891602 24.27301758 25.62430664 24.25708008 26.40258789 C24.29588172 32.04822651 25.67228671 36.39589465 28.80395508 41.11352539 C31.20254552 43.44983287 31.20254552 43.44983287 33.80395508 45.11352539 C35.14076764 46.10886953 36.4746881 47.10812643 37.80395508 48.11352539 C31.79000625 48.2126271 25.77653592 48.28510455 19.76196289 48.33325195 C17.71728227 48.35332959 15.67265881 48.38059764 13.62817383 48.4152832 C10.68401971 48.46397058 7.74062674 48.48653283 4.79614258 48.50415039 C3.88653778 48.52479553 2.97693298 48.54544067 2.0397644 48.56671143 C-4.65908761 48.56906358 -7.98735059 47.2307605 -12.84057617 42.51586914 C-17.60876822 36.53569517 -17.46538994 31.78825656 -17.57104492 24.42602539 C-17.60842773 23.45729492 -17.64581055 22.48856445 -17.68432617 21.49047852 C-17.76668876 14.72301899 -16.58559422 10.33513316 -12.19604492 5.11352539 C-8.28053234 1.47769227 -5.3260248 -0.01599407 0 0 Z " fill="#6F6571" transform="translate(133.196044921875,120.886474609375)"/>
<path d="M0 0 C0.66 0.33 1.32 0.66 2 1 C-7.24 10.24 -16.48 19.48 -26 29 C-26 25.42399803 -25.47693642 25.06829154 -23.10546875 22.55859375 C-22.17359741 21.56569336 -22.17359741 21.56569336 -21.22290039 20.55273438 C-20.55121826 19.85470703 -19.87953613 19.15667969 -19.1875 18.4375 C-18.51130615 17.72529297 -17.8351123 17.01308594 -17.13842773 16.27929688 C-11.66600042 10.56848854 -5.98203252 5.17364975 0 0 Z " fill="#89DA98" transform="translate(78,193)"/>
</svg>
